<?xml version="1.0" standalone="no"?>
<!DOCTYPE svg PUBLIC "-//W3C//DTD SVG 20010904//EN"
 "http://www.w3.org/TR/2001/REC-SVG-20010904/DTD/svg10.dtd">
<svg version="1.0" xmlns="http://www.w3.org/2000/svg"
 width="902.000000pt" height="901.000000pt" viewBox="0 0 902.000000 901.000000"
 preserveAspectRatio="xMidYMid meet">

<g transform="translate(0.000000,901.000000) scale(0.100000,-0.100000)"
fill="#000000" stroke="none">
<path d="M4370 8502 c0 -5 17 -14 39 -20 35 -11 39 -16 44 -54 8 -60 -19 -502
-32 -527 -7 -12 -26 -23 -46 -27 -33 -6 -59 -24 -35 -24 6 0 87 -5 180 -11
239 -15 322 3 406 88 77 77 99 170 73 310 l-19 98 -63 61 c-41 41 -76 66 -102
73 -79 23 -445 50 -445 33z m369 -64 c49 -15 115 -80 140 -139 23 -52 30 -163
15 -225 -10 -44 -39 -97 -66 -120 -33 -30 -198 -87 -231 -80 -15 3 -37 8 -50
11 l-22 4 12 228 c6 125 13 251 15 278 l3 50 50 6 c54 6 80 3 134 -13z"/>
<path d="M3805 8438 c-3 -7 -34 -136 -70 -286 -76 -316 -97 -379 -131 -394
-25 -12 -32 -28 -12 -28 34 0 198 34 198 42 0 4 -9 8 -21 8 -38 0 -59 19 -59
53 0 29 24 134 32 143 2 1 57 13 123 24 l119 22 23 -29 c27 -33 63 -107 63
-128 0 -9 -11 -21 -25 -27 -35 -16 -33 -39 3 -32 15 3 71 13 125 22 100 18
122 32 67 43 -44 9 -69 41 -251 327 -88 138 -165 252 -170 252 -5 0 -12 -6
-14 -12z m94 -271 c33 -54 61 -102 61 -106 0 -8 -199 -46 -205 -39 -3 2 9 60
25 128 16 69 30 129 30 135 0 17 26 -18 89 -118z"/>
<path d="M5580 8352 c0 -5 14 -18 30 -30 20 -15 30 -31 30 -48 0 -27 -109
-326 -163 -447 -32 -71 -52 -86 -102 -73 -14 4 -25 2 -25 -3 0 -9 142 -67 290
-119 106 -36 215 -37 285 0 62 32 118 87 143 142 11 23 25 84 32 137 12 95 12
96 -16 150 -62 123 -96 146 -339 239 -170 65 -165 64 -165 52z m332 -195 c87
-81 104 -116 95 -202 -9 -86 -45 -164 -101 -221 l-51 -51 -107 -7 c-98 -6
-110 -5 -152 16 -25 12 -46 27 -46 33 0 9 106 298 179 489 11 27 13 28 58 21
39 -6 58 -18 125 -78z"/>
<path d="M3012 8204 c-91 -24 -354 -134 -359 -149 -2 -6 15 -9 41 -7 43 4 45
3 69 -40 32 -54 182 -413 190 -455 5 -27 1 -36 -28 -62 -19 -16 -31 -32 -27
-35 9 -6 268 100 338 138 70 38 123 91 150 151 54 120 39 221 -55 343 -57 76
-61 78 -137 105 -89 31 -107 32 -182 11z m154 -85 c79 -48 146 -179 147 -286
1 -71 -17 -104 -105 -189 -38 -36 -67 -55 -101 -64 -26 -7 -49 -11 -51 -9 -8
11 -206 496 -206 506 0 6 19 23 43 37 37 23 53 26 141 26 82 0 104 -3 132 -21z"/>
<path d="M6400 8015 c0 -4 11 -21 25 -39 24 -32 25 -35 10 -69 -14 -34 -212
-344 -265 -415 -21 -28 -30 -33 -55 -29 -16 2 -38 7 -47 12 -11 4 -18 3 -18
-3 0 -11 407 -275 424 -275 20 0 137 96 128 105 -5 5 -28 0 -53 -11 -67 -31
-115 -27 -185 15 -82 49 -124 83 -124 99 0 15 136 225 146 225 17 0 126 -74
149 -102 26 -31 27 -45 8 -93 -16 -42 21 -3 77 80 61 92 64 113 10 75 -22 -16
-38 -20 -58 -15 -38 9 -162 83 -162 97 0 6 30 57 66 113 l67 103 75 -47 c42
-25 91 -61 110 -78 34 -32 34 -34 27 -89 -4 -36 -3 -54 3 -50 18 11 74 118 65
126 -10 10 -377 246 -403 260 -11 6 -20 8 -20 5z"/>
<path d="M2375 7889 c-60 -38 -112 -75 -114 -81 -2 -7 2 -9 15 -3 11 4 33 10
50 12 30 5 34 0 86 -79 77 -117 202 -317 221 -355 23 -43 21 -56 -9 -92 -14
-17 -20 -31 -14 -31 20 0 240 142 234 151 -2 4 -19 2 -37 -5 -57 -24 -56 -25
-215 227 -151 240 -157 256 -108 297 17 13 21 30 9 29 -5 0 -57 -32 -118 -70z"/>
<path d="M2040 7653 c0 -26 -8 -32 -74 -65 -68 -34 -76 -41 -110 -101 l-36
-64 24 -69 c20 -61 27 -70 66 -91 51 -27 86 -28 223 -7 181 28 226 18 248 -55
11 -36 9 -44 -14 -84 -51 -87 -160 -111 -249 -57 -27 17 -53 28 -59 25 -10 -7
127 -175 142 -175 5 0 9 11 9 24 0 21 13 32 80 66 75 40 82 46 121 113 l41 72
-18 64 c-24 89 -66 127 -146 133 -18 1 -97 -9 -175 -22 -135 -23 -144 -23
-177 -8 -26 13 -38 27 -46 55 -11 34 -9 43 10 76 47 80 157 101 236 46 25 -17
49 -29 55 -27 10 3 -123 170 -141 176 -5 2 -10 -9 -10 -25z"/>
<path d="M7115 7178 c-77 -42 -81 -45 -137 -138 -55 -91 -57 -98 -58 -165 0
-54 6 -81 25 -120 32 -67 39 -74 120 -128 l70 -47 89 0 c106 0 106 16 0 22
-61 3 -78 8 -122 38 -41 29 -56 47 -78 98 -23 55 -26 70 -20 124 10 85 69 161
183 235 80 51 85 53 153 53 60 0 77 -4 118 -30 43 -26 52 -38 75 -97 l27 -68
-25 -79 c-14 -44 -22 -82 -20 -85 7 -7 165 151 160 159 -2 4 -17 5 -33 2 -28
-4 -31 0 -68 78 -36 78 -42 85 -114 133 l-75 51 -95 3 -95 4 -80 -43z"/>
<path d="M4920 7163 c-79 -38 -152 -115 -179 -188 -40 -105 -46 -199 -31 -453
15 -264 9 -369 -22 -393 -20 -15 -20 -16 -1 -110 l19 -94 36 -9 c53 -13 117
15 190 83 l60 56 74 305 c86 351 154 677 154 736 0 62 -23 78 -118 80 -42 0
-88 4 -102 7 -17 5 -43 -2 -80 -20z"/>
<path d="M1485 7075 c-51 -20 -77 -45 -197 -192 -96 -120 -108 -146 -45 -101
l30 22 39 -23 c41 -23 373 -288 401 -318 14 -16 14 -23 0 -61 -8 -24 -12 -46
-9 -50 3 -3 7 -3 9 -1 2 2 40 50 85 106 45 56 82 107 82 113 0 6 -16 0 -37
-14 -33 -23 -38 -24 -64 -11 -20 11 -137 99 -188 142 -3 2 7 15 21 29 l25 26
188 -9 187 -8 54 67 c30 37 54 69 54 72 0 12 -22 5 -60 -20 -38 -25 -45 -26
-176 -25 -75 0 -151 3 -170 7 -37 7 -36 2 -12 97 8 34 6 44 -20 85 -44 72
-117 97 -197 67z m57 -90 c39 -14 48 -23 68 -65 21 -45 22 -54 11 -87 -19 -57
-45 -106 -57 -110 -6 -2 -57 33 -113 77 l-102 81 19 31 c19 29 95 86 118 87 6
1 31 -6 56 -14z"/>
<path d="M3464 6946 c-57 -38 -109 -111 -131 -186 l-14 -49 54 -113 c85 -177
241 -402 470 -675 l102 -122 105 2 105 2 23 45 c20 38 23 57 20 125 -5 102
-24 142 -146 304 -51 68 -100 138 -109 155 -9 17 -27 44 -40 60 -28 33 -74
123 -127 246 -49 113 -94 173 -158 210 -67 38 -91 37 -154 -4z"/>
<path d="M5964 6662 c-73 -48 -143 -116 -195 -193 -22 -33 -93 -166 -157 -296
-65 -131 -139 -274 -165 -319 -26 -45 -47 -87 -47 -95 0 -44 155 -134 186
-108 7 5 30 15 52 22 32 10 92 62 294 258 224 218 254 251 265 290 12 45 47
89 131 162 51 45 82 93 82 127 0 47 -12 70 -39 77 -14 3 -65 23 -114 44 -48
21 -113 43 -145 49 -31 6 -64 13 -73 16 -8 2 -42 -13 -75 -34z"/>
<path d="M975 6377 c-49 -95 -101 -196 -117 -225 -34 -63 -30 -77 12 -37 23
22 35 27 59 22 46 -10 462 -229 477 -252 10 -16 11 -30 4 -55 -9 -30 -7 -50 4
-39 2 2 57 105 121 228 l117 224 -61 60 c-33 34 -63 58 -66 55 -4 -3 5 -29 19
-57 37 -72 34 -111 -16 -210 -24 -47 -51 -89 -60 -95 -19 -11 -40 -3 -174 70
l-82 44 46 86 c50 94 74 112 123 95 16 -5 31 -6 34 -1 3 4 -37 31 -89 59 -122
66 -140 67 -90 8 21 -25 24 -37 19 -66 -6 -33 -71 -161 -81 -161 -6 0 -195 96
-212 108 -10 7 1 33 44 114 61 116 80 132 145 122 57 -9 48 7 -25 43 l-64 32
-87 -172z"/>
<path d="M7680 6419 c-342 -35 -381 -36 -405 -9 -20 22 -35 26 -35 10 0 -14
94 -180 102 -180 3 0 6 21 5 48 l-2 47 83 14 c46 7 88 9 92 5 25 -27 120 -216
114 -227 -18 -30 -88 -109 -106 -118 -16 -9 -25 -6 -44 12 -13 12 -27 20 -30
17 -8 -8 110 -220 121 -219 5 1 8 16 7 34 -4 44 24 85 238 352 100 124 178
230 175 235 -3 6 -14 9 -23 9 -9 -1 -141 -14 -292 -30z m154 -41 c-5 -7 -43
-57 -85 -110 -56 -71 -79 -94 -86 -85 -17 22 -93 164 -93 174 0 6 48 14 108
20 161 15 164 15 156 1z"/>
<path d="M8208 5897 c4 -44 4 -44 -45 -64 -90 -39 -454 -144 -486 -141 -22 2
-38 12 -53 36 -13 18 -25 29 -28 23 -3 -5 27 -116 67 -247 l73 -239 92 -3 c93
-3 124 10 55 23 -45 8 -83 27 -104 51 -23 27 -68 145 -75 198 -6 43 -6 45 27
59 32 13 416 128 468 140 34 8 59 -8 76 -48 7 -19 19 -35 26 -35 6 0 9 6 6 13
-2 6 -22 72 -43 144 -39 134 -62 171 -56 90z"/>
<path d="M747 5903 c-9 -15 -47 -163 -47 -181 1 -13 6 -11 25 11 13 15 33 27
43 27 18 0 96 -51 177 -115 22 -17 80 -62 128 -99 49 -38 87 -70 84 -72 -6 -7
-404 -64 -445 -64 -47 0 -62 14 -62 57 0 18 -4 33 -8 33 -10 0 -81 -257 -74
-265 3 -3 19 11 36 31 l31 35 334 47 c190 27 336 52 338 58 2 6 -94 86 -214
179 -261 201 -323 258 -323 297 0 26 -13 38 -23 21z"/>
<path d="M2178 5856 c-75 -28 -85 -39 -98 -118 -34 -198 39 -323 231 -398 41
-16 149 -47 240 -70 272 -68 379 -110 466 -185 37 -31 46 -34 137 -41 l98 -7
-3 79 c-4 70 -9 91 -51 177 -26 54 -62 111 -80 128 -56 53 -157 114 -310 187
-81 38 -196 100 -257 136 -60 37 -135 78 -166 92 -71 31 -157 39 -207 20z"/>
<path d="M6825 5827 c-33 -18 -102 -61 -154 -96 -83 -57 -187 -110 -217 -111
-6 0 -21 -12 -35 -26 -13 -14 -58 -43 -99 -64 -77 -39 -130 -82 -130 -106 0
-8 -9 -14 -21 -14 -51 0 -185 -88 -230 -151 l-21 -30 22 -24 c29 -31 90 -59
160 -75 54 -11 59 -10 295 60 275 81 402 114 533 140 52 10 95 20 96 22 38 53
116 190 116 204 0 28 -45 120 -87 177 -31 41 -141 128 -162 127 -3 0 -33 -15
-66 -33z"/>
<path d="M4420 5713 c-128 -13 -265 -58 -535 -175 -155 -67 -162 -71 -228
-140 -83 -89 -190 -248 -234 -350 -78 -179 -113 -427 -85 -613 71 -482 100
-573 241 -756 172 -223 424 -323 809 -321 183 1 259 9 437 47 61 12 137 28
170 35 205 42 365 169 560 446 54 76 129 182 167 235 83 117 106 193 115 369
15 313 -132 676 -357 882 -194 179 -390 294 -527 309 -351 39 -425 43 -533 32z
m352 -268 c209 -36 415 -137 559 -273 51 -48 68 -75 113 -172 82 -179 114
-296 123 -450 8 -139 -78 -370 -198 -531 -71 -96 -202 -218 -299 -277 -178
-110 -337 -151 -591 -154 -147 -2 -171 1 -234 21 -94 31 -182 77 -294 151
-133 89 -149 108 -209 249 -153 358 -157 649 -13 946 113 232 350 424 596 484
101 25 324 28 447 6z"/>
<path d="M4415 5313 c-45 -7 -212 -81 -275 -120 -107 -68 -214 -190 -278 -318
-31 -62 -82 -207 -82 -231 0 -8 -7 -26 -16 -40 -46 -69 -35 -160 36 -286 27
-49 55 -106 62 -126 31 -93 213 -297 336 -376 99 -64 164 -85 289 -92 300 -18
541 101 768 380 105 130 132 200 141 367 6 116 5 129 -19 199 -14 41 -28 106
-32 143 -6 59 -13 77 -56 142 -99 147 -308 288 -502 336 -81 20 -305 34 -372
22z m335 -240 c91 -22 220 -84 258 -124 43 -46 97 -150 117 -229 23 -84 24
-245 2 -323 -32 -120 -172 -287 -288 -344 -123 -61 -182 -64 -400 -23 l-116
22 -89 106 c-139 167 -204 318 -204 474 0 57 6 76 55 175 49 99 62 118 121
168 37 31 92 68 123 82 94 44 278 51 421 16z"/>
<path d="M4473 4897 c-66 -34 -97 -59 -167 -133 l-85 -91 25 -124 c49 -243
111 -317 295 -350 58 -10 78 -10 135 4 183 46 296 180 322 383 l12 92 -39 79
c-57 114 -124 155 -280 168 -36 3 -82 8 -101 10 -26 3 -55 -7 -117 -38z m182
-275 c50 -26 71 -43 73 -59 4 -28 -20 -79 -58 -120 -27 -30 -33 -32 -67 -25
-52 11 -78 52 -87 137 -6 61 -5 68 16 85 32 26 43 25 123 -18z"/>
<path d="M8410 5172 c0 -65 -26 -72 -347 -98 -245 -20 -242 -20 -265 42 -18
50 -29 41 -23 -18 3 -29 12 -120 20 -201 17 -179 42 -244 116 -311 102 -92
222 -98 411 -21 10 4 40 38 68 75 67 91 76 137 61 325 -16 190 -22 235 -32
235 -5 0 -9 -13 -9 -28z m-1 -227 c46 -190 -105 -339 -329 -323 -107 8 -140
31 -200 140 -45 83 -50 98 -47 141 2 26 6 49 8 52 5 5 529 54 544 51 5 -2 16
-29 24 -61z"/>
<path d="M546 5028 c-6 -43 -26 -232 -26 -243 0 -3 4 -5 9 -5 5 0 12 16 15 35
11 59 25 60 278 35 123 -12 246 -27 273 -34 48 -11 50 -14 59 -54 9 -37 26
-59 26 -32 0 18 20 203 26 238 7 44 -7 40 -28 -8 l-17 -40 -59 0 c-79 0 -426
37 -480 51 -39 11 -43 15 -48 51 -9 54 -22 56 -28 6z"/>
<path d="M6053 4620 c-109 -22 -142 -102 -85 -207 76 -144 82 -150 162 -187
97 -44 232 -91 509 -177 197 -61 234 -69 303 -69 86 0 131 14 165 51 27 30 46
101 38 142 -8 38 -85 209 -100 219 -21 16 -167 69 -326 118 -120 37 -198 55
-289 66 -69 8 -150 21 -180 28 -78 20 -148 25 -197 16z"/>
<path d="M505 4508 c8 -127 14 -146 29 -89 14 56 22 58 216 71 80 5 167 12
193 14 27 3 47 2 45 -3 -4 -9 -413 -390 -439 -409 -16 -11 -17 -23 -12 -100 3
-48 9 -91 14 -96 5 -6 9 -1 9 12 0 26 32 93 53 110 16 13 446 42 508 35 32 -4
38 -10 49 -44 16 -47 30 -51 30 -6 0 69 -13 197 -20 197 -4 0 -11 -15 -14 -34
-4 -19 -13 -39 -20 -45 -8 -7 -51 -16 -97 -21 -111 -12 -359 -24 -359 -17 0 3
110 107 245 233 135 125 245 232 245 236 0 10 5 10 -250 -7 -118 -8 -252 -15
-298 -15 l-83 0 -17 40 c-9 22 -21 40 -25 40 -4 0 -5 -46 -2 -102z"/>
<path d="M7830 4403 c0 -5 -7 -51 -15 -103 -8 -52 -12 -97 -9 -100 7 -6 34 30
34 46 0 24 31 22 87 -7 103 -52 98 -39 78 -181 -9 -68 -17 -124 -18 -124 -1
-1 -26 -9 -56 -18 -96 -28 -141 -20 -141 25 0 16 -4 29 -10 29 -5 0 -10 -3
-11 -7 0 -5 -8 -63 -18 -130 -13 -92 -14 -123 -5 -123 6 0 17 13 23 29 17 39
45 49 385 140 159 42 291 82 293 88 2 6 -113 82 -257 168 -266 160 -340 215
-340 253 0 20 -20 33 -20 15z m374 -328 c54 -32 94 -61 89 -62 -6 -2 -67 -19
-137 -37 -89 -24 -126 -30 -126 -22 0 21 21 180 25 194 5 15 2 17 149 -73z"/>
<path d="M2425 4303 c-166 -13 -300 -44 -423 -95 l-74 -31 4 -76 c8 -131 76
-232 164 -245 146 -20 310 -2 534 56 238 63 349 87 423 94 53 6 72 12 92 32
30 30 32 72 7 121 -15 30 -27 38 -100 62 -191 64 -446 97 -627 82z"/>
<path d="M5593 3723 c-18 -40 -27 -82 -31 -136 -4 -74 -3 -81 32 -152 46 -93
108 -151 311 -288 164 -112 245 -175 306 -242 83 -90 171 -83 306 25 61 48 79
94 69 172 -21 157 -113 232 -541 445 -143 71 -295 152 -339 181 -43 29 -81 52
-83 52 -2 0 -16 -26 -30 -57z"/>
<path d="M1050 3754 c-41 -6 -138 -30 -214 -53 -76 -23 -151 -41 -166 -41 -27
0 -70 36 -70 58 0 7 -4 12 -10 12 -14 0 -14 -3 20 -120 17 -58 30 -106 30
-107 0 -2 5 -3 11 -3 6 0 9 7 5 15 -3 8 -3 28 0 44 5 24 17 34 63 54 79 35
253 84 344 98 77 11 78 11 123 -17 64 -40 107 -120 101 -187 -5 -62 -31 -95
-98 -129 -61 -30 -335 -114 -392 -120 -33 -4 -40 0 -60 29 -24 36 -42 44 -35
16 46 -168 73 -253 80 -253 4 0 8 18 8 39 0 34 5 42 34 60 19 12 108 43 198
70 220 65 230 69 272 133 34 50 36 57 36 137 0 81 -2 87 -42 157 -24 41 -47
75 -53 78 -99 41 -109 43 -185 30z"/>
<path d="M3232 3602 c-82 -30 -156 -87 -266 -207 -199 -217 -329 -341 -384
-366 l-52 -24 0 -77 c0 -75 1 -77 33 -99 17 -13 61 -48 97 -78 79 -66 130 -90
193 -91 71 0 104 19 194 111 196 202 404 471 511 660 l32 57 -38 34 c-93 84
-219 116 -320 80z"/>
<path d="M7680 3605 c0 -3 5 -13 11 -24 10 -15 4 -29 -35 -86 l-46 -67 0 -93
0 -92 54 -52 c47 -44 60 -51 94 -51 53 0 98 20 163 73 127 103 207 157 231
157 14 0 36 -12 51 -28 55 -58 23 -176 -58 -215 -21 -10 -60 -17 -95 -17 -33
0 -60 -4 -60 -9 0 -10 209 -85 217 -77 4 3 -1 14 -11 25 -16 18 -15 22 28 89
44 67 46 74 46 144 l0 74 -47 46 c-89 85 -148 75 -301 -51 -153 -125 -193
-137 -250 -78 -43 44 -44 100 -4 164 38 63 102 94 172 86 82 -10 60 16 -46 54
-88 31 -114 38 -114 28z"/>
<path d="M4932 3274 c-51 -26 -90 -71 -103 -117 -15 -57 0 -123 56 -252 24
-56 56 -143 69 -191 108 -390 175 -573 227 -620 14 -12 36 -17 78 -17 75 0
108 20 206 125 75 81 75 81 75 137 0 69 -34 167 -84 245 -47 74 -66 121 -116
298 -48 168 -90 258 -145 313 -76 76 -197 112 -263 79z"/>
<path d="M4100 3144 c-76 -53 -211 -311 -233 -444 -8 -50 -19 -77 -48 -115
-53 -70 -72 -118 -120 -296 -40 -153 -41 -154 -23 -187 40 -75 163 -109 284
-78 72 19 153 66 178 104 22 34 107 250 137 347 56 184 115 491 115 600 l0 40
-107 28 c-129 33 -138 33 -183 1z"/>
<path d="M7290 2137 c-62 -31 -66 -35 -91 -96 l-27 -63 36 -78 35 -78 75 -32
75 -32 61 26 c34 15 66 30 72 34 12 8 54 121 54 145 0 9 -14 46 -32 81 -31 63
-33 65 -105 95 -40 17 -76 31 -80 30 -5 0 -37 -14 -73 -32z m110 -43 c58 -30
75 -46 109 -98 l41 -62 -17 -50 c-14 -46 -20 -52 -61 -67 l-44 -17 -68 36
c-60 31 -74 44 -108 101 l-40 65 15 45 c13 37 23 48 57 64 22 10 43 19 45 19
1 0 34 -16 71 -36z"/>
<path d="M1840 2111 c0 -5 5 -13 10 -16 24 -15 3 -50 -100 -168 -105 -120
-112 -126 -137 -116 -14 5 -27 8 -29 6 -2 -2 49 -49 113 -105 l117 -101 48 27
c45 25 68 53 31 37 -54 -24 -82 -18 -138 26 -30 24 -54 51 -55 60 0 18 192
244 215 253 9 3 27 -1 41 -10 44 -29 25 1 -33 52 -67 58 -83 69 -83 55z"/>
<path d="M6980 1855 c0 -14 -15 -27 -50 -43 -105 -48 -150 -176 -99 -283 18
-40 35 -57 82 -86 l59 -36 91 28 c99 29 128 49 158 108 22 42 22 41 -38 115
-37 45 -42 56 -32 73 19 36 4 31 -55 -17 -57 -47 -75 -75 -34 -53 20 11 27 7
75 -47 29 -32 53 -63 53 -67 0 -22 -44 -66 -80 -81 -90 -36 -196 21 -240 129
l-22 55 22 55 c25 62 31 68 83 85 32 10 44 9 77 -4 22 -9 40 -12 40 -8 0 4
-20 28 -45 52 -36 36 -45 40 -45 25z"/>
<path d="M2184 1809 c13 -20 13 -25 -1 -53 -9 -17 -35 -56 -58 -86 -103 -136
-116 -186 -63 -252 41 -52 108 -82 164 -73 47 7 77 36 168 159 56 75 59 78 92
73 19 -3 34 -4 34 -2 0 6 -106 85 -114 85 -4 0 0 -10 8 -21 8 -12 12 -29 9
-38 -8 -21 -76 -113 -132 -178 -51 -58 -80 -66 -146 -39 -83 35 -83 99 0 215
100 140 108 147 139 133 45 -20 28 2 -38 51 -71 52 -85 58 -62 26z"/>
<path d="M2595 1510 c22 -24 20 -30 -67 -180 -77 -132 -94 -151 -125 -144 -37
10 -27 -2 31 -35 61 -35 76 -39 52 -12 -13 14 -14 24 -7 44 13 33 133 239 137
235 1 -2 -5 -83 -14 -181 -12 -118 -14 -176 -7 -173 6 2 73 47 149 100 76 54
140 96 141 94 4 -4 -116 -210 -135 -233 -9 -11 -24 -15 -42 -13 -15 3 -28 2
-28 -1 1 -8 144 -90 149 -85 2 2 -3 12 -12 22 -10 10 -17 22 -17 27 0 14 151
273 166 286 8 6 25 9 39 7 38 -8 30 4 -24 35 l-50 28 -138 -100 c-76 -54 -139
-98 -141 -96 -1 1 4 74 13 161 8 88 15 164 15 171 0 10 -80 63 -96 63 -4 0 1
-9 11 -20z"/>
<path d="M6469 1467 c-75 -46 -139 -89 -139 -94 0 -2 9 -1 20 2 29 9 43 -5
120 -120 99 -148 105 -161 85 -191 -8 -13 -13 -24 -9 -24 7 0 144 88 144 93 0
2 -13 2 -29 -1 -23 -3 -34 3 -57 31 -16 20 -37 49 -47 66 -17 29 -17 30 2 40
15 9 42 2 125 -30 l106 -41 45 26 c50 30 61 52 18 35 -27 -10 -106 8 -197 46
l-37 16 21 34 c41 67 -1 145 -79 145 -24 0 -56 -12 -92 -33z m96 -29 c15 -13
28 -38 31 -58 5 -30 1 -39 -30 -69 -20 -19 -37 -33 -39 -30 -2 2 -23 32 -46
67 -41 60 -42 64 -26 82 9 10 29 21 44 23 14 2 29 5 33 6 4 0 19 -9 33 -21z"/>
<path d="M6064 1173 c18 -243 19 -332 2 -358 -21 -32 -10 -31 56 3 52 27 53
27 22 30 -28 3 -32 8 -38 40 -11 69 -10 70 65 106 l71 34 39 -35 c40 -36 49
-58 27 -66 -7 -2 -10 -7 -7 -11 7 -8 139 52 139 64 0 4 -10 5 -23 3 -26 -5
-60 20 -232 170 -60 53 -114 97 -119 97 -4 0 -5 -35 -2 -77z m101 -78 l59 -54
-58 -26 c-32 -14 -60 -25 -61 -23 -7 9 -15 158 -8 158 4 -1 35 -25 68 -55z"/>
<path d="M3131 1211 l24 -19 -24 -58 c-14 -33 -47 -106 -74 -163 -48 -101 -50
-103 -78 -97 -52 10 -31 -9 46 -42 85 -37 100 -40 65 -13 l-24 19 23 59 c13
32 46 104 73 161 46 98 50 102 81 103 29 0 26 3 -38 35 -77 38 -110 45 -74 15z"/>
<path d="M3348 1114 c46 -32 46 -46 2 -181 -53 -162 -63 -181 -97 -185 -23 -3
-17 -7 36 -26 36 -12 66 -20 68 -19 2 2 -5 11 -16 21 -22 20 -19 40 33 191 30
90 35 98 44 75 5 -14 37 -99 72 -190 34 -91 65 -169 70 -173 4 -5 33 67 64
160 31 92 60 174 65 181 5 8 20 15 35 15 41 3 31 11 -39 34 -64 21 -83 19 -46
-4 13 -8 18 -19 14 -35 -9 -40 -75 -239 -78 -236 -2 2 -30 75 -63 163 -33 88
-63 168 -67 177 -4 9 -27 24 -53 32 -58 20 -72 20 -44 0z"/>
<path d="M5653 1068 c-87 -30 -123 -51 -70 -41 17 3 28 -2 38 -19 12 -18 96
-236 114 -295 2 -6 -5 -19 -16 -29 -35 -32 -19 -32 64 0 72 27 78 31 50 34
-33 3 -46 23 -77 110 l-14 39 36 12 c21 6 51 23 69 39 27 23 33 35 35 75 1 40
-3 52 -24 73 -40 40 -95 41 -205 2z m120 -10 c34 -18 46 -40 47 -85 0 -33 -5
-46 -26 -62 -45 -35 -58 -28 -84 47 -13 37 -25 72 -27 78 -3 7 8 17 24 22 37
14 41 14 66 0z"/>
<path d="M5420 997 c0 -14 -10 -17 -53 -17 -63 0 -123 -35 -133 -78 -3 -15 -8
-34 -10 -43 -10 -36 43 -76 141 -109 100 -33 125 -54 117 -95 -5 -28 -58 -65
-92 -65 -29 0 -79 30 -85 51 -3 10 -13 23 -22 30 -14 12 -15 10 -8 -21 19 -94
27 -115 36 -97 8 13 23 17 63 17 40 0 62 6 98 29 41 26 47 35 53 75 12 76 -5
92 -154 146 -88 31 -101 41 -101 77 0 25 43 63 72 63 31 0 76 -28 95 -60 27
-46 32 -36 15 33 -15 62 -32 96 -32 64z"/>
<path d="M3900 777 c-63 -94 -126 -177 -138 -183 -30 -15 -21 -20 48 -28 48
-6 53 -5 38 7 -23 18 -23 31 4 78 24 44 21 43 107 25 69 -15 77 -22 86 -78 8
-44 1 -58 -27 -58 -12 0 -19 -2 -16 -5 7 -7 152 -34 157 -29 3 3 -5 11 -16 19
-27 19 -33 39 -79 253 -20 94 -40 172 -43 172 -3 0 -58 -78 -121 -173z m110
-14 c7 -35 10 -66 7 -69 -7 -7 -117 15 -117 24 0 3 19 34 42 69 46 72 50 71
68 -24z"/>
</g>
</svg>
